<?xml version='1.0' encoding='UTF-8' standalone='no'?>
<svg height="432pt" width="576pt" xmlns:xlink="http://www.w3.org/1999/xlink" viewBox="0 0 576 432" xmlns="http://www.w3.org/2000/svg">
 <title>gl2ps_renderer figure</title>
 <desc>
Creator: GL2PS 1.4.0, (C) 1999-2017 C. Geuzaine
For: Octave
CreationDate: Tue Jan  4 00:01:27 2022
</desc>
 <defs/>
 <polygon points="0,0 576,0 576,432 0,432" fill="#ffffff"/>
 <g>
  <polygon points="0,432 576,432 576,0 0,0" shape-rendering="crispEdges" fill="#ffffff"/>
  <clipPath id="cp00576432">
   <polygon points="0,432 576,432 576,0 0,0"/>
  </clipPath>
  <g clip-path="url(#cp00576432)">
   <polygon points="74.88,384.48 521.28,384.48 521.28,32.4 74.88,32.4" shape-rendering="crispEdges" fill="#ffffff"/>
   <polyline stroke-linejoin="miter" stroke-linecap="butt" points="74.88,384.48 74.88,380.015" stroke-width="0.5" stroke="#262626" fill="none"/>
   <polyline stroke-linejoin="miter" stroke-linecap="butt" points="149.28,384.48 149.28,380.015" stroke-width="0.5" stroke="#262626" fill="none"/>
   <polyline stroke-linejoin="miter" stroke-linecap="butt" points="223.68,384.48 223.68,380.015" stroke-width="0.5" stroke="#262626" fill="none"/>
   <polyline stroke-linejoin="miter" stroke-linecap="butt" points="298.08,384.48 298.08,380.015" stroke-width="0.5" stroke="#262626" fill="none"/>
   <polyline stroke-linejoin="miter" stroke-linecap="butt" points="372.48,384.48 372.48,380.015" stroke-width="0.5" stroke="#262626" fill="none"/>
   <polyline stroke-linejoin="miter" stroke-linecap="butt" points="446.88,384.48 446.88,380.015" stroke-width="0.5" stroke="#262626" fill="none"/>
   <polyline stroke-linejoin="miter" stroke-linecap="butt" points="521.28,384.48 521.28,380.015" stroke-width="0.5" stroke="#262626" fill="none"/>
   <text font-weight="normal" font-size="10" transform="translate(71.88,399.982) rotate(-0,3,-8)" xml:space="preserve" font-family="FreeSans" font-style="normal">
    <tspan y="-0" fill="rgb(38,38,38)" x="0 ">0</tspan>
   </text>
   <text font-weight="normal" font-size="10" transform="translate(141.78,399.982) rotate(-0,7.5,-8)" xml:space="preserve" font-family="FreeSans" font-style="normal">
    <tspan y="-0" fill="rgb(38,38,38)" x="0 6 9 ">0.5</tspan>
   </text>
   <text font-weight="normal" font-size="10" transform="translate(220.68,399.982) rotate(-0,3,-8)" xml:space="preserve" font-family="FreeSans" font-style="normal">
    <tspan y="-0" fill="rgb(38,38,38)" x="0 ">1</tspan>
   </text>
   <text font-weight="normal" font-size="10" transform="translate(290.58,399.982) rotate(-0,7.5,-8)" xml:space="preserve" font-family="FreeSans" font-style="normal">
    <tspan y="-0" fill="rgb(38,38,38)" x="0 6 9 ">1.5</tspan>
   </text>
   <text font-weight="normal" font-size="10" transform="translate(369.48,399.982) rotate(-0,3,-8)" xml:space="preserve" font-family="FreeSans" font-style="normal">
    <tspan y="-0" fill="rgb(38,38,38)" x="0 ">2</tspan>
   </text>
   <text font-weight="normal" font-size="10" transform="translate(439.38,399.982) rotate(-0,7.5,-8)" xml:space="preserve" font-family="FreeSans" font-style="normal">
    <tspan y="-0" fill="rgb(38,38,38)" x="0 6 9 ">2.5</tspan>
   </text>
   <text font-weight="normal" font-size="10" transform="translate(518.28,399.982) rotate(-0,3,-8)" xml:space="preserve" font-family="FreeSans" font-style="normal">
    <tspan y="-0" fill="rgb(38,38,38)" x="0 ">3</tspan>
   </text>
   <polyline stroke-linejoin="miter" stroke-linecap="butt" points="74.88,384.48 79.348,384.48" stroke-width="0.5" stroke="#262626" fill="none"/>
   <polyline stroke-linejoin="miter" stroke-linecap="butt" points="74.88,314.064 79.348,314.064" stroke-width="0.5" stroke="#262626" fill="none"/>
   <polyline stroke-linejoin="miter" stroke-linecap="butt" points="74.88,243.648 79.348,243.648" stroke-width="0.5" stroke="#262626" fill="none"/>
   <polyline stroke-linejoin="miter" stroke-linecap="butt" points="74.88,173.232 79.348,173.232" stroke-width="0.5" stroke="#262626" fill="none"/>
   <polyline stroke-linejoin="miter" stroke-linecap="butt" points="74.88,102.816 79.348,102.816" stroke-width="0.5" stroke="#262626" fill="none"/>
   <polyline stroke-linejoin="miter" stroke-linecap="butt" points="74.88,32.4 79.348,32.4" stroke-width="0.5" stroke="#262626" fill="none"/>
   <text font-weight="normal" font-size="10" transform="translate(63.8755,388.48) rotate(-0,6,-4)" xml:space="preserve" font-family="FreeSans" font-style="normal">
    <tspan y="-0" fill="rgb(38,38,38)" x="0 ">0</tspan>
   </text>
   <text font-weight="normal" font-size="10" transform="translate(54.8755,318.064) rotate(-0,15,-4)" xml:space="preserve" font-family="FreeSans" font-style="normal">
    <tspan y="-0" fill="rgb(38,38,38)" x="0 6 9 ">0.5</tspan>
   </text>
   <text font-weight="normal" font-size="10" transform="translate(63.8755,247.648) rotate(-0,6,-4)" xml:space="preserve" font-family="FreeSans" font-style="normal">
    <tspan y="-0" fill="rgb(38,38,38)" x="0 ">1</tspan>
   </text>
   <text font-weight="normal" font-size="10" transform="translate(54.8755,177.232) rotate(-0,15,-4)" xml:space="preserve" font-family="FreeSans" font-style="normal">
    <tspan y="-0" fill="rgb(38,38,38)" x="0 6 9 ">1.5</tspan>
   </text>
   <text font-weight="normal" font-size="10" transform="translate(63.8755,106.816) rotate(-0,6,-4)" xml:space="preserve" font-family="FreeSans" font-style="normal">
    <tspan y="-0" fill="rgb(38,38,38)" x="0 ">2</tspan>
   </text>
   <text font-weight="normal" font-size="10" transform="translate(54.8755,36.4) rotate(-0,15,-4)" xml:space="preserve" font-family="FreeSans" font-style="normal">
    <tspan y="-0" fill="rgb(38,38,38)" x="0 6 9 ">2.5</tspan>
   </text>
   <polyline stroke-linejoin="miter" stroke-linecap="square" points="74.88,384.48 521.28,384.48" stroke-width="0.5" stroke="#262626" stroke-dasharray="16,0" fill="none"/>
   <polyline stroke-linejoin="miter" stroke-linecap="square" points="74.88,384.48 74.88,32.4" stroke-width="0.5" stroke="#262626" stroke-dasharray="16,0" fill="none"/>
   <polyline stroke-linejoin="miter" stroke-linecap="square" points="71.88,384.48 77.88,384.48" stroke-width="0.5" stroke="#0071bc" fill="none"/>
   <polyline stroke-linejoin="miter" stroke-linecap="square" points="74.88,381.48 74.88,387.48" stroke-width="0.5" stroke="#0071bc" fill="none"/>
   <polyline stroke-linejoin="miter" stroke-linecap="square" points="220.68,243.648 226.68,243.648" stroke-width="0.5" stroke="#0071bc" fill="none"/>
   <polyline stroke-linejoin="miter" stroke-linecap="square" points="223.68,240.648 223.68,246.648" stroke-width="0.5" stroke="#0071bc" fill="none"/>
   <polyline stroke-linejoin="miter" stroke-linecap="square" points="369.48,145.066 375.48,145.066" stroke-width="0.5" stroke="#0071bc" fill="none"/>
   <polyline stroke-linejoin="miter" stroke-linecap="square" points="372.48,142.066 372.48,148.066" stroke-width="0.5" stroke="#0071bc" fill="none"/>
   <polyline stroke-linejoin="miter" stroke-linecap="square" points="518.28,130.982 524.28,130.982" stroke-width="0.5" stroke="#0071bc" fill="none"/>
   <polyline stroke-linejoin="miter" stroke-linecap="square" points="521.28,127.982 521.28,133.982" stroke-width="0.5" stroke="#0071bc" fill="none"/>
   <polyline stroke-linejoin="round" stroke-linecap="butt" points="74.88,384.48 80.8171,378.599 86.7245,372.785 92.6021,367.039 98.4499,361.361 104.268,355.75 110.056,350.207 115.815,344.732 121.544,339.324 127.243,333.983 132.912,328.711 138.552,323.505 144.161,318.368 149.741,313.298 155.292,308.296 160.812,303.361 166.303,298.494 171.764,293.694 177.195,288.962 182.596,284.298 187.968,279.701 193.31,275.172 198.622,270.71 203.904,266.316 209.157,261.99 214.38,257.731 219.573,253.54 224.736,249.416 229.87,245.361 234.974,241.372 240.048,237.451 245.092,233.598 250.107,229.813 255.092,226.095 260.047,222.444 264.972,218.862 269.868,215.346 274.733,211.899 279.569,208.519 284.376,205.207 289.152,201.962 293.899,198.785 298.616,195.675 303.303,192.633 307.96,189.659 312.588,186.752 317.186,183.913 321.754,181.141 326.292,178.437 330.801,175.801 335.28,173.232 339.729,170.731 344.148,168.297 348.538,165.931 352.898,163.633 357.228,161.402 361.528,159.239 365.799,157.143 370.04,155.115 374.251,153.155 378.432,151.262 382.583,149.437 386.705,147.679 390.797,145.989 394.859,144.367 398.892,142.812 402.895,141.325 406.868,139.906 410.811,138.554 414.724,137.269 418.608,136.052 422.462,134.903 426.286,133.822 430.08,132.808 433.845,131.861 437.58,130.982 441.285,130.171 444.96,129.428 448.606,128.752 452.222,128.143 455.808,127.602 459.364,127.129 462.891,126.724 466.388,126.386 469.855,126.115 473.292,125.912 476.7,125.777 480.077,125.71 483.425,125.71 486.743,125.777 490.032,125.912 493.291,126.115 496.52,126.386 499.719,126.724 502.888,127.129 506.028,127.602 509.138,128.143 512.218,128.752 515.268,129.428 518.289,130.171 521.28,130.982" stroke-width="0.5" stroke="#ff0000" stroke-dasharray="4,4,4,4" fill="none"/>
   <polyline stroke-linejoin="round" stroke-linecap="butt" points="74.88,384.48 86.04,373.392 97.2,362.323 108.36,351.289 119.52,340.308 130.68,329.399 141.84,318.579 153,307.865 164.16,297.277 175.32,286.831 186.48,276.545 197.64,266.438 208.8,256.527 219.96,246.83 231.12,237.364 242.28,228.148 253.44,219.2 264.6,210.536 275.76,202.176 286.92,194.136 298.08,186.435 309.24,179.091 320.4,172.12 331.56,165.542 342.72,159.374 353.88,153.634 365.04,148.339 376.2,143.508 387.36,139.158 398.52,135.307 409.68,131.973 420.84,129.173 432,126.926 443.16,125.25 454.32,124.162 465.48,123.679 476.64,123.821 487.8,124.604 498.96,126.047 510.12,128.167 521.28,130.982" stroke-width="0.5" stroke="#ff00ff" fill="none"/>
   <polyline stroke-linejoin="round" stroke-linecap="butt" points="74.88,384.48 79.344,380.044 83.808,375.609 88.272,371.177 92.736,366.747 97.2,362.323 101.664,357.904 106.128,353.492 110.592,349.088 115.056,344.693 119.52,340.308 123.984,335.935 128.448,331.574 132.912,327.227 137.376,322.895 141.84,318.579 146.304,314.279 150.768,309.999 155.232,305.737 159.696,301.496 164.16,297.277 168.624,293.08 173.088,288.908 177.552,284.76 182.016,280.639 186.48,276.545 190.944,272.48 195.408,268.445 199.872,264.44 204.336,260.467 208.8,256.527 213.264,252.622 217.728,248.751 222.192,244.918 226.656,241.122 231.12,237.364 235.584,233.647 240.048,229.971 244.512,226.337 248.976,222.746 253.44,219.2 257.904,215.699 262.368,212.245 266.832,208.839 271.296,205.482 275.76,202.176 280.224,198.92 284.688,195.717 289.152,192.568 293.616,189.474 298.08,186.435 302.544,183.453 307.008,180.53 311.472,177.666 315.936,174.862 320.4,172.12 324.864,169.441 329.328,166.826 333.792,164.275 338.256,161.791 342.72,159.374 347.184,157.026 351.648,154.747 356.112,152.539 360.576,150.402 365.04,148.339 369.504,146.35 373.968,144.436 378.432,142.599 382.896,140.839 387.36,139.158 391.824,137.556 396.288,136.036 400.752,134.598 405.216,133.243 409.68,131.973 414.144,130.788 418.608,129.689 423.072,128.679 427.536,127.758 432,126.926 436.464,126.186 440.928,125.539 445.392,124.985 449.856,124.525 454.32,124.162 458.784,123.895 463.248,123.727 467.712,123.657 472.176,123.688 476.64,123.821 481.104,124.056 485.568,124.396 490.032,124.84 494.496,125.39 498.96,126.047 503.424,126.813 507.888,127.688 512.352,128.674 516.816,129.772 521.28,130.982" stroke-width="0.5" stroke="#0000ff" stroke-dasharray="4,4,4,4" fill="none"/>
   <polyline stroke-linejoin="round" stroke-linecap="butt" points="74.88,384.48 223.68,236.606 372.48,88.7328 521.28,130.982" stroke-width="0.5" stroke="#0000ff" fill="none"/>
   <polyline stroke-linejoin="miter" stroke-linecap="square" points="74.88,381.48 77.88,384.48 74.88,387.48 71.88,384.48 74.88,381.48" stroke-width="0.5" stroke="#0000ff" fill="none"/>
   <polyline stroke-linejoin="miter" stroke-linecap="square" points="223.68,233.606 226.68,236.606 223.68,239.606 220.68,236.606 223.68,233.606" stroke-width="0.5" stroke="#0000ff" fill="none"/>
   <polyline stroke-linejoin="miter" stroke-linecap="square" points="372.48,85.7328 375.48,88.7328 372.48,91.7328 369.48,88.7328 372.48,85.7328" stroke-width="0.5" stroke="#0000ff" fill="none"/>
   <polyline stroke-linejoin="miter" stroke-linecap="square" points="521.28,127.982 524.28,130.982 521.28,133.982 518.28,130.982 521.28,127.982" stroke-width="0.5" stroke="#0000ff" fill="none"/>
   <polyline stroke-linejoin="round" stroke-linecap="butt" points="74.5167,384.832 74.88,384.48 89.7091,369.99" stroke-width="0.5" stroke="#000000" stroke-dasharray="1,1,1,1,1,1,1,1,1,1" fill="none"/>
   <polyline stroke-linejoin="round" stroke-linecap="butt" points="74.88,384.48 89.7104,370 104.534,355.468 119.358,340.936 134.189,326.456 149.032,312.082 163.896,297.867 178.786,283.863 193.709,270.123 208.671,256.701 223.68,243.648 238.742,231.018" stroke-width="0.5" stroke="#000000" stroke-dasharray="1,1,1,1,1,1,1,1,1,1" fill="none"/>
   <polyline stroke-linejoin="round" stroke-linecap="butt" points="223.68,243.648 238.736,231.018 253.821,218.864 268.907,207.238 283.972,196.192 298.989,185.78 313.933,176.054 328.779,167.067 343.502,158.872 358.078,151.52 372.48,145.066 386.684,139.56" stroke-width="0.5" stroke="#000000" stroke-dasharray="1,1,1,1,1,1,1,1,1,1" fill="none"/>
  </g>
  <clipPath id="cp00576432">
   <polygon points="0,432 576,432 576,0 0,0"/>
  </clipPath>
  <g clip-path="url(#cp00576432)">
   <polygon points="304.269,373.513 510.313,373.513 510.313,278.899 304.269,278.899" shape-rendering="crispEdges" fill="#ffffff"/>
   <polyline stroke-linejoin="miter" stroke-linecap="square" points="304.269,373.513 510.313,373.513" stroke-width="0.5" stroke="#262626" stroke-dasharray="16,0" fill="none"/>
   <polyline stroke-linejoin="miter" stroke-linecap="square" points="304.269,278.899 510.313,278.899" stroke-width="0.5" stroke="#262626" stroke-dasharray="16,0" fill="none"/>
   <polyline stroke-linejoin="miter" stroke-linecap="square" points="304.269,373.513 304.269,278.899" stroke-width="0.5" stroke="#262626" stroke-dasharray="16,0" fill="none"/>
   <polyline stroke-linejoin="miter" stroke-linecap="square" points="510.313,373.513 510.313,278.899" stroke-width="0.5" stroke="#262626" stroke-dasharray="16,0" fill="none"/>
   <text font-weight="normal" font-size="9" transform="translate(331.229,291.284) rotate(-0,-0,-4.5)" xml:space="preserve" font-family="FreeSans" font-style="normal">
    <tspan y="-1" fill="rgb(0,0,0)" x="0 5 10 15 20 ">nodes</tspan>
   </text>
   <text font-weight="normal" font-size="9" transform="translate(331.229,307.553) rotate(-0,-0,-5)" xml:space="preserve" font-family="FreeSans" font-style="normal">
    <tspan y="-2" fill="rgb(0,0,0)" x="0 6 12 17 20 27 33 35 40 46 52 58 63 66 70 72 75 80 83 88 93 95 100 105 108 112 114 117 122 125 130 133 138 140 145 147 149 ">SPLINE FEED2(y'(0)=1.05,y'(1)=-0.3  )</tspan>
   </text>
   <text font-weight="normal" font-size="9" transform="translate(331.229,323.322) rotate(-0,-0,-5)" xml:space="preserve" font-family="FreeSans" font-style="normal">
    <tspan y="-2" fill="rgb(0,0,0)" x="0 5 10 15 17 22 24 29 34 37 42 46 51 53 56 58 61 63 68 72 77 79 81 86 88 91 93 97 102 106 109 113 ">cubic octave fit explicit y=y(x)</tspan>
   </text>
   <text font-weight="normal" font-size="9" transform="translate(331.229,339.091) rotate(-0,-0,-5)" xml:space="preserve" font-family="FreeSans" font-style="normal">
    <tspan y="-2" fill="rgb(0,0,0)" x="0 6 12 17 20 27 33 35 40 46 52 58 63 66 70 72 75 80 83 88 93 95 100 105 108 112 114 117 122 125 130 133 138 140 145 147 149 ">SPLINE FEED3(y'(0)=1.05,y'(1)=-0.3  )</tspan>
   </text>
   <text font-weight="normal" font-size="9" transform="translate(331.229,354.86) rotate(-0,-0,-5)" xml:space="preserve" font-family="FreeSans" font-style="normal">
    <tspan y="-2" fill="rgb(0,0,0)" x="0 6 11 16 19 23 28 33 38 43 46 49 54 56 58 63 68 70 74 79 84 89 91 94 99 102 104 110 113 119 124 126 128 133 ">Coefs=control polygon for B-Spline</tspan>
   </text>
   <text font-weight="normal" font-size="9" transform="translate(331.229,370.629) rotate(-0,-0,-5)" xml:space="preserve" font-family="FreeSans" font-style="normal">
    <tspan y="-2" fill="rgb(0,0,0)" x="0 4 9 11 13 18 23 25 30 35 40 44 47 50 55 60 63 68 71 73 76 81 86 91 95 100 104 106 110 115 122 124 129 132 134 139 141 145 150 152 154 159 164 168 ">spline constructor (convex sum of 3 splines)</tspan>
   </text>
   <polyline stroke-linejoin="miter" stroke-linecap="square" points="314.749,286.784 320.749,286.784" stroke-width="0.5" stroke="#0071bc" fill="none"/>
   <polyline stroke-linejoin="miter" stroke-linecap="square" points="317.749,283.784 317.749,289.784" stroke-width="0.5" stroke="#0071bc" fill="none"/>
   <polyline stroke-linejoin="round" stroke-linecap="butt" points="307.468,302.553 328.03,302.553" stroke-width="0.5" stroke="#ff0000" stroke-dasharray="4,4,4,4" fill="none"/>
   <polyline stroke-linejoin="round" stroke-linecap="butt" points="307.468,318.322 328.03,318.322" stroke-width="0.5" stroke="#ff00ff" fill="none"/>
   <polyline stroke-linejoin="round" stroke-linecap="butt" points="307.468,334.091 328.03,334.091" stroke-width="0.5" stroke="#0000ff" stroke-dasharray="4,4,4,4" fill="none"/>
   <polyline stroke-linejoin="round" stroke-linecap="butt" points="307.468,349.86 328.03,349.86" stroke-width="0.5" stroke="#0000ff" fill="none"/>
   <polyline stroke-linejoin="miter" stroke-linecap="square" points="317.749,346.86 320.749,349.86 317.749,352.86 314.749,349.86 317.749,346.86" stroke-width="0.5" stroke="#0000ff" fill="none"/>
   <polyline stroke-linejoin="round" stroke-linecap="butt" points="307.468,365.629 328.03,365.629" stroke-width="0.5" stroke="#000000" stroke-dasharray="1,1,1,1,1,1,1,1,1,1" fill="none"/>
  </g>
 </g>
</svg>
