<?xml version='1.0' encoding='UTF-8' standalone='no'?>
<svg xmlns="http://www.w3.org/2000/svg" xmlns:xlink="http://www.w3.org/1999/xlink" width="576pt" height="432pt" viewBox="0 0 576 432">
 <title>gl2ps_renderer figure</title>
 <desc>
Creator: GL2PS 1.4.0, (C) 1999-2017 C. Geuzaine
For: Octave
CreationDate: Tue Dec 28 22:24:48 2021
</desc>
 <defs/>
 <polygon points="0,0 576,0 576,432 0,432" fill="#ffffff"/>
 <g>
  <polygon points="0,432 576,432 576,0 0,0" shape-rendering="crispEdges" fill="#ffffff"/>
  <clipPath id="cp00576432">
   <polygon points="0,432 576,432 576,0 0,0"/>
  </clipPath>
  <g clip-path="url(#cp00576432)">
   <polygon points="74.88,384.48 521.28,384.48 521.28,32.4 74.88,32.4" shape-rendering="crispEdges" fill="#ffffff"/>
   <polyline points="74.88,384.48 74.88,32.4" stroke-width="0.5" stroke-linecap="butt" stroke="#262626" stroke-opacity="0.15" stroke-dasharray="16,0" fill="none" stroke-linejoin="miter"/>
   <polyline points="164.16,384.48 164.16,32.4" stroke-width="0.5" stroke-linecap="butt" stroke="#262626" stroke-opacity="0.15" stroke-dasharray="16,0" fill="none" stroke-linejoin="miter"/>
   <polyline points="253.44,384.48 253.44,32.4" stroke-width="0.5" stroke-linecap="butt" stroke="#262626" stroke-opacity="0.15" stroke-dasharray="16,0" fill="none" stroke-linejoin="miter"/>
   <polyline points="342.72,384.48 342.72,32.4" stroke-width="0.5" stroke-linecap="butt" stroke="#262626" stroke-opacity="0.15" stroke-dasharray="16,0" fill="none" stroke-linejoin="miter"/>
   <polyline points="432,384.48 432,32.4" stroke-width="0.5" stroke-linecap="butt" stroke="#262626" stroke-opacity="0.15" stroke-dasharray="16,0" fill="none" stroke-linejoin="miter"/>
   <polyline points="521.28,384.48 521.28,32.4" stroke-width="0.5" stroke-linecap="butt" stroke="#262626" stroke-opacity="0.15" stroke-dasharray="16,0" fill="none" stroke-linejoin="miter"/>
   <polyline points="74.88,384.48 74.88,380.015" stroke-width="0.5" stroke-linecap="butt" stroke="#262626" fill="none" stroke-linejoin="miter"/>
   <polyline points="164.16,384.48 164.16,380.015" stroke-width="0.5" stroke-linecap="butt" stroke="#262626" fill="none" stroke-linejoin="miter"/>
   <polyline points="253.44,384.48 253.44,380.015" stroke-width="0.5" stroke-linecap="butt" stroke="#262626" fill="none" stroke-linejoin="miter"/>
   <polyline points="342.72,384.48 342.72,380.015" stroke-width="0.5" stroke-linecap="butt" stroke="#262626" fill="none" stroke-linejoin="miter"/>
   <polyline points="432,384.48 432,380.015" stroke-width="0.5" stroke-linecap="butt" stroke="#262626" fill="none" stroke-linejoin="miter"/>
   <polyline points="521.28,384.48 521.28,380.015" stroke-width="0.5" stroke-linecap="butt" stroke="#262626" fill="none" stroke-linejoin="miter"/>
   <text font-family="FreeSans" transform="translate(71.88,399.982) rotate(-0,3,-8)" font-size="10" font-weight="normal" font-style="normal" xml:space="preserve">
    <tspan x="0 " fill="rgb(38,38,38)" y="-0">0</tspan>
   </text>
   <text font-family="FreeSans" transform="translate(156.66,399.982) rotate(-0,7.5,-8)" font-size="10" font-weight="normal" font-style="normal" xml:space="preserve">
    <tspan x="0 6 9 " fill="rgb(38,38,38)" y="-0">0.2</tspan>
   </text>
   <text font-family="FreeSans" transform="translate(245.94,399.982) rotate(-0,7.5,-8)" font-size="10" font-weight="normal" font-style="normal" xml:space="preserve">
    <tspan x="0 6 9 " fill="rgb(38,38,38)" y="-0">0.4</tspan>
   </text>
   <text font-family="FreeSans" transform="translate(335.22,399.982) rotate(-0,7.5,-8)" font-size="10" font-weight="normal" font-style="normal" xml:space="preserve">
    <tspan x="0 6 9 " fill="rgb(38,38,38)" y="-0">0.6</tspan>
   </text>
   <text font-family="FreeSans" transform="translate(424.5,399.982) rotate(-0,7.5,-8)" font-size="10" font-weight="normal" font-style="normal" xml:space="preserve">
    <tspan x="0 6 9 " fill="rgb(38,38,38)" y="-0">0.8</tspan>
   </text>
   <text font-family="FreeSans" transform="translate(518.28,399.982) rotate(-0,3,-8)" font-size="10" font-weight="normal" font-style="normal" xml:space="preserve">
    <tspan x="0 " fill="rgb(38,38,38)" y="-0">1</tspan>
   </text>
   <polyline points="74.88,384.48 521.28,384.48" stroke-width="0.5" stroke-linecap="butt" stroke="#262626" stroke-opacity="0.15" stroke-dasharray="16,0" fill="none" stroke-linejoin="miter"/>
   <polyline points="74.88,296.46 521.28,296.46" stroke-width="0.5" stroke-linecap="butt" stroke="#262626" stroke-opacity="0.15" stroke-dasharray="16,0" fill="none" stroke-linejoin="miter"/>
   <polyline points="74.88,208.44 521.28,208.44" stroke-width="0.5" stroke-linecap="butt" stroke="#262626" stroke-opacity="0.15" stroke-dasharray="16,0" fill="none" stroke-linejoin="miter"/>
   <polyline points="74.88,120.42 521.28,120.42" stroke-width="0.5" stroke-linecap="butt" stroke="#262626" stroke-opacity="0.15" stroke-dasharray="16,0" fill="none" stroke-linejoin="miter"/>
   <polyline points="74.88,32.4 521.28,32.4" stroke-width="0.5" stroke-linecap="butt" stroke="#262626" stroke-opacity="0.15" stroke-dasharray="16,0" fill="none" stroke-linejoin="miter"/>
   <polyline points="74.88,384.48 79.348,384.48" stroke-width="0.5" stroke-linecap="butt" stroke="#262626" fill="none" stroke-linejoin="miter"/>
   <polyline points="74.88,296.46 79.348,296.46" stroke-width="0.5" stroke-linecap="butt" stroke="#262626" fill="none" stroke-linejoin="miter"/>
   <polyline points="74.88,208.44 79.348,208.44" stroke-width="0.5" stroke-linecap="butt" stroke="#262626" fill="none" stroke-linejoin="miter"/>
   <polyline points="74.88,120.42 79.348,120.42" stroke-width="0.5" stroke-linecap="butt" stroke="#262626" fill="none" stroke-linejoin="miter"/>
   <polyline points="74.88,32.4 79.348,32.4" stroke-width="0.5" stroke-linecap="butt" stroke="#262626" fill="none" stroke-linejoin="miter"/>
   <text font-family="FreeSans" transform="translate(60.8755,388.48) rotate(-0,9,-4)" font-size="10" font-weight="normal" font-style="normal" xml:space="preserve">
    <tspan x="0 3 " fill="rgb(38,38,38)" y="-0">-1</tspan>
   </text>
   <text font-family="FreeSans" transform="translate(51.8755,300.46) rotate(-0,18,-4)" font-size="10" font-weight="normal" font-style="normal" xml:space="preserve">
    <tspan x="0 3 9 12 " fill="rgb(38,38,38)" y="-0">-0.5</tspan>
   </text>
   <text font-family="FreeSans" transform="translate(63.8755,212.44) rotate(-0,6,-4)" font-size="10" font-weight="normal" font-style="normal" xml:space="preserve">
    <tspan x="0 " fill="rgb(38,38,38)" y="-0">0</tspan>
   </text>
   <text font-family="FreeSans" transform="translate(54.8755,124.42) rotate(-0,15,-4)" font-size="10" font-weight="normal" font-style="normal" xml:space="preserve">
    <tspan x="0 6 9 " fill="rgb(38,38,38)" y="-0">0.5</tspan>
   </text>
   <text font-family="FreeSans" transform="translate(63.8755,36.4) rotate(-0,6,-4)" font-size="10" font-weight="normal" font-style="normal" xml:space="preserve">
    <tspan x="0 " fill="rgb(38,38,38)" y="-0">1</tspan>
   </text>
   <polyline points="74.88,384.48 521.28,384.48" stroke-width="0.5" stroke-linecap="square" stroke="#262626" stroke-dasharray="16,0" fill="none" stroke-linejoin="miter"/>
   <polyline points="74.88,384.48 74.88,32.4" stroke-width="0.5" stroke-linecap="square" stroke="#262626" stroke-dasharray="16,0" fill="none" stroke-linejoin="miter"/>
   <text font-family="FreeSans" transform="translate(139.08,416.982) rotate(-0,159,-12)" font-size="11" font-weight="normal" font-style="normal" xml:space="preserve">
    <tspan x="0 8 14 18 27 33 35 37 42 48 54 57 63 65 70 73 79 85 91 97 100 106 108 114 120 126 129 135 137 141 147 153 162 165 171 175 181 187 193 199 202 205 212 215 221 225 228 230 236 242 245 251 254 257 261 266 269 274 278 284 287 293 296 300 306 309 315 " fill="rgb(38,38,38)" y="-3">Normalized distance along circumference. Starting at (x,y)=[0,-0.3]</tspan>
   </text>
   <text font-family="FreeSans" transform="translate(-45.6245,208.44) rotate(-90,92.5,0)" font-size="11" font-weight="normal" font-style="normal" xml:space="preserve">
    <tspan x="0 5 8 12 17 19 25 29 31 33 39 45 49 52 58 64 70 73 78 81 85 91 97 102 106 108 110 116 122 126 129 135 141 147 151 157 159 165 171 174 180 " fill="rgb(38,38,38)" y="-3">x (sin-like) and y (cos-like) coordinates</tspan>
   </text>
   <polyline points="74.88,208.44 81.2722,197.386 87.6414,186.376 93.9649,175.453 100.22,164.661 106.384,154.041 112.436,143.635 118.355,133.486 124.119,123.632 129.709,114.113 135.107,104.966 140.295,96.2279 145.257,87.9323 149.979,80.1124 154.446,72.7989 158.648,66.0207 162.577,59.8045 166.228,54.175 169.597,49.1543 172.687,44.7621 175.507,41.016 178.072,37.9306 180.407,35.5182 182.549,33.7881 184.552,32.7474 186.48,32.4 188.408,32.7474 190.411,33.7881 192.553,35.5182 194.888,37.9306 197.453,41.016 200.273,44.7621 203.363,49.1543 206.732,54.175 210.382,59.8045 214.312,66.0207 218.514,72.7989 222.981,80.1124 227.703,87.9323 232.665,96.2279 237.853,104.966 243.251,114.113 248.841,123.632 254.605,133.486 260.524,143.635 266.576,154.041 272.74,164.661 278.995,175.453 285.319,186.376 291.688,197.386 298.08,208.44 304.472,219.494 310.841,230.504 317.165,241.427 323.42,252.219 329.584,262.839 335.636,273.245 341.555,283.394 347.319,293.248 352.909,302.767 358.307,311.914 363.495,320.652 368.457,328.948 373.179,336.768 377.646,344.081 381.848,350.859 385.777,357.076 389.428,362.705 392.797,367.726 395.887,372.118 398.707,375.864 401.272,378.949 403.607,381.362 405.749,383.092 407.752,384.133 409.68,384.48 411.608,384.133 413.611,383.092 415.753,381.362 418.088,378.949 420.653,375.864 423.473,372.118 426.563,367.726 429.932,362.705 433.583,357.076 437.512,350.859 441.714,344.081 446.181,336.768 450.903,328.948 455.865,320.652 461.053,311.914 466.451,302.767 472.041,293.248 477.805,283.394 483.724,273.245 489.776,262.839 495.94,252.219 502.195,241.427 508.519,230.504 514.888,219.494 521.28,208.44" stroke-width="0.5" stroke-linecap="butt" stroke="#000000" fill="none" stroke-linejoin="round"/>
   <polyline points="74.88,208.44 141.227,94.6712 178.427,37.564 186.48,32.4 194.533,37.564 231.733,94.6712 298.08,208.44 364.427,322.209 401.627,379.316 409.68,384.48 417.733,379.316 454.933,322.209 521.28,208.44" stroke-width="0.5" stroke-linecap="butt" stroke="#0000ff" fill="none" stroke-linejoin="round"/>
   <polyline points="77.88,208.44 77.3071,210.203 75.8071,211.293 73.9529,211.293 72.4529,210.203 71.88,208.44 72.4529,206.677 73.9529,205.587 75.8071,205.587 77.3071,206.677 77.88,208.44" stroke-width="0.5" stroke-linecap="round" stroke="#0000ff" fill="none" stroke-linejoin="round"/>
   <polyline points="144.227,94.6712 143.654,96.4346 142.154,97.5244 140.3,97.5244 138.8,96.4346 138.227,94.6712 138.8,92.9079 140.3,91.8181 142.154,91.8181 143.654,92.9079 144.227,94.6712" stroke-width="0.5" stroke-linecap="round" stroke="#0000ff" fill="none" stroke-linejoin="round"/>
   <polyline points="181.427,37.564 180.854,39.3273 179.354,40.4171 177.5,40.4171 176,39.3273 175.427,37.564 176,35.8006 177.5,34.7108 179.354,34.7108 180.854,35.8006 181.427,37.564" stroke-width="0.5" stroke-linecap="round" stroke="#0000ff" fill="none" stroke-linejoin="round"/>
   <polyline points="189.48,32.4 188.907,34.1634 187.407,35.2532 185.553,35.2532 184.053,34.1634 183.48,32.4 184.053,30.6366 185.553,29.5468 187.407,29.5468 188.907,30.6366 189.48,32.4" stroke-width="0.5" stroke-linecap="round" stroke="#0000ff" fill="none" stroke-linejoin="round"/>
   <polyline points="197.533,37.564 196.96,39.3273 195.46,40.4171 193.606,40.4171 192.106,39.3273 191.533,37.564 192.106,35.8006 193.606,34.7108 195.46,34.7108 196.96,35.8006 197.533,37.564" stroke-width="0.5" stroke-linecap="round" stroke="#0000ff" fill="none" stroke-linejoin="round"/>
   <polyline points="234.733,94.6712 234.161,96.4346 232.661,97.5244 230.806,97.5244 229.306,96.4346 228.733,94.6712 229.306,92.9079 230.806,91.8181 232.661,91.8181 234.161,92.9079 234.733,94.6712" stroke-width="0.5" stroke-linecap="round" stroke="#0000ff" fill="none" stroke-linejoin="round"/>
   <polyline points="301.08,208.44 300.507,210.203 299.007,211.293 297.153,211.293 295.653,210.203 295.08,208.44 295.653,206.677 297.153,205.587 299.007,205.587 300.507,206.677 301.08,208.44" stroke-width="0.5" stroke-linecap="round" stroke="#0000ff" fill="none" stroke-linejoin="round"/>
   <polyline points="367.427,322.209 366.854,323.972 365.354,325.062 363.5,325.062 362,323.972 361.427,322.209 362,320.445 363.5,319.356 365.354,319.356 366.854,320.445 367.427,322.209" stroke-width="0.5" stroke-linecap="round" stroke="#0000ff" fill="none" stroke-linejoin="round"/>
   <polyline points="404.627,379.316 404.054,381.079 402.554,382.169 400.699,382.169 399.199,381.079 398.627,379.316 399.199,377.553 400.699,376.463 402.554,376.463 404.054,377.553 404.627,379.316" stroke-width="0.5" stroke-linecap="round" stroke="#0000ff" fill="none" stroke-linejoin="round"/>
   <polyline points="412.68,384.48 412.107,386.243 410.607,387.333 408.753,387.333 407.253,386.243 406.68,384.48 407.253,382.717 408.753,381.627 410.607,381.627 412.107,382.717 412.68,384.48" stroke-width="0.5" stroke-linecap="round" stroke="#0000ff" fill="none" stroke-linejoin="round"/>
   <polyline points="420.733,379.316 420.16,381.079 418.66,382.169 416.806,382.169 415.306,381.079 414.733,379.316 415.306,377.553 416.806,376.463 418.66,376.463 420.16,377.553 420.733,379.316" stroke-width="0.5" stroke-linecap="round" stroke="#0000ff" fill="none" stroke-linejoin="round"/>
   <polyline points="457.933,322.209 457.361,323.972 455.861,325.062 454.006,325.062 452.506,323.972 451.933,322.209 452.506,320.445 454.006,319.356 455.861,319.356 457.361,320.445 457.933,322.209" stroke-width="0.5" stroke-linecap="round" stroke="#0000ff" fill="none" stroke-linejoin="round"/>
   <polyline points="524.28,208.44 523.707,210.203 522.207,211.293 520.353,211.293 518.853,210.203 518.28,208.44 518.853,206.677 520.353,205.587 522.207,205.587 523.707,206.677 524.28,208.44" stroke-width="0.5" stroke-linecap="round" stroke="#0000ff" fill="none" stroke-linejoin="round"/>
   <polyline points="74.88,208.44 79.344,200.889 83.808,193.334 88.272,185.775 92.736,178.206 97.2,170.627 101.664,163.033 106.128,155.423 110.592,147.792 115.056,140.139 119.52,132.461 123.984,124.755 128.448,117.017 132.912,109.246 137.376,101.438 141.84,93.5905 146.304,85.7264 150.768,77.9368 155.232,70.324 159.696,62.9902 164.16,56.0379 168.624,49.5692 173.088,43.6866 177.552,38.4922 182.016,34.2499 186.48,32.4 190.944,34.2499 195.408,38.4922 199.872,43.6866 204.336,49.5692 208.8,56.0379 213.264,62.9902 217.728,70.324 222.192,77.9368 226.656,85.7264 231.12,93.5905 235.584,101.438 240.048,109.246 244.512,117.017 248.976,124.755 253.44,132.461 257.904,140.139 262.368,147.792 266.832,155.423 271.296,163.033 275.76,170.627 280.224,178.206 284.688,185.775 289.152,193.334 293.616,200.889 298.08,208.44 302.544,215.991 307.008,223.546 311.472,231.105 315.936,238.674 320.4,246.253 324.864,253.847 329.328,261.457 333.792,269.088 338.256,276.741 342.72,284.419 347.184,292.125 351.648,299.863 356.112,307.634 360.576,315.442 365.04,323.29 369.504,331.154 373.968,338.943 378.432,346.556 382.896,353.89 387.36,360.842 391.824,367.311 396.288,373.193 400.752,378.388 405.216,382.63 409.68,384.48 414.144,382.63 418.608,378.388 423.072,373.193 427.536,367.311 432,360.842 436.464,353.89 440.928,346.556 445.392,338.943 449.856,331.154 454.32,323.29 458.784,315.442 463.248,307.634 467.712,299.863 472.176,292.125 476.64,284.419 481.104,276.741 485.568,269.088 490.032,261.457 494.496,253.847 498.96,246.253 503.424,238.674 507.888,231.105 512.352,223.546 516.816,215.991 521.28,208.44" stroke-width="0.5" stroke-linecap="butt" stroke="#ff00ff" fill="none" stroke-linejoin="round"/>
   <polyline points="74.88,208.44 126.48,120.42 165.791,55.9849 186.48,32.4 207.169,55.9849 246.48,120.42 298.08,208.44 349.68,296.46 388.991,360.895 409.68,384.48 430.369,360.895 469.68,296.46 521.28,208.44" stroke-width="0.5" stroke-linecap="butt" stroke="#00ff00" stroke-dasharray="1,1,1,1,1,1,1,1,1,1" fill="none" stroke-linejoin="round"/>
   <polyline points="71.88,205.44 71.88,211.44 77.88,211.44 77.88,205.44 71.88,205.44" stroke-width="0.5" stroke-linecap="square" stroke="#00ff00" fill="none" stroke-linejoin="miter"/>
   <polyline points="123.48,117.42 123.48,123.42 129.48,123.42 129.48,117.42 123.48,117.42" stroke-width="0.5" stroke-linecap="square" stroke="#00ff00" fill="none" stroke-linejoin="miter"/>
   <polyline points="162.791,52.9849 162.791,58.9849 168.791,58.9849 168.791,52.9849 162.791,52.9849" stroke-width="0.5" stroke-linecap="square" stroke="#00ff00" fill="none" stroke-linejoin="miter"/>
   <polyline points="183.48,29.4 183.48,35.4 189.48,35.4 189.48,29.4 183.48,29.4" stroke-width="0.5" stroke-linecap="square" stroke="#00ff00" fill="none" stroke-linejoin="miter"/>
   <polyline points="204.169,52.9849 204.169,58.9849 210.169,58.9849 210.169,52.9849 204.169,52.9849" stroke-width="0.5" stroke-linecap="square" stroke="#00ff00" fill="none" stroke-linejoin="miter"/>
   <polyline points="243.48,117.42 243.48,123.42 249.48,123.42 249.48,117.42 243.48,117.42" stroke-width="0.5" stroke-linecap="square" stroke="#00ff00" fill="none" stroke-linejoin="miter"/>
   <polyline points="295.08,205.44 295.08,211.44 301.08,211.44 301.08,205.44 295.08,205.44" stroke-width="0.5" stroke-linecap="square" stroke="#00ff00" fill="none" stroke-linejoin="miter"/>
   <polyline points="346.68,293.46 346.68,299.46 352.68,299.46 352.68,293.46 346.68,293.46" stroke-width="0.5" stroke-linecap="square" stroke="#00ff00" fill="none" stroke-linejoin="miter"/>
   <polyline points="385.991,357.895 385.991,363.895 391.991,363.895 391.991,357.895 385.991,357.895" stroke-width="0.5" stroke-linecap="square" stroke="#00ff00" fill="none" stroke-linejoin="miter"/>
   <polyline points="406.68,381.48 406.68,387.48 412.68,387.48 412.68,381.48 406.68,381.48" stroke-width="0.5" stroke-linecap="square" stroke="#00ff00" fill="none" stroke-linejoin="miter"/>
   <polyline points="427.369,357.895 427.369,363.895 433.369,363.895 433.369,357.895 427.369,357.895" stroke-width="0.5" stroke-linecap="square" stroke="#00ff00" fill="none" stroke-linejoin="miter"/>
   <polyline points="466.68,293.46 466.68,299.46 472.68,299.46 472.68,293.46 466.68,293.46" stroke-width="0.5" stroke-linecap="square" stroke="#00ff00" fill="none" stroke-linejoin="miter"/>
   <polyline points="518.28,205.44 518.28,211.44 524.28,211.44 524.28,205.44 518.28,205.44" stroke-width="0.5" stroke-linecap="square" stroke="#00ff00" fill="none" stroke-linejoin="miter"/>
   <polyline points="74.88,208.44 151.979,77.2275 174.67,42.4679 186.48,32.4 198.29,42.4679 220.981,77.2275 298.08,208.44 375.179,339.652 397.87,374.412 409.68,384.48 421.49,374.412 444.181,339.652 521.28,208.44" stroke-width="0.5" stroke-linecap="butt" stroke="#00ffff" stroke-dasharray="4,4,4,4" fill="none" stroke-linejoin="round"/>
   <polyline points="71.88,208.44 77.88,208.44" stroke-width="0.5" stroke-linecap="square" stroke="#00ffff" fill="none" stroke-linejoin="miter"/>
   <polyline points="74.88,205.44 74.88,211.44" stroke-width="0.5" stroke-linecap="square" stroke="#00ffff" fill="none" stroke-linejoin="miter"/>
   <polyline points="148.979,77.2275 154.979,77.2275" stroke-width="0.5" stroke-linecap="square" stroke="#00ffff" fill="none" stroke-linejoin="miter"/>
   <polyline points="151.979,74.2275 151.979,80.2275" stroke-width="0.5" stroke-linecap="square" stroke="#00ffff" fill="none" stroke-linejoin="miter"/>
   <polyline points="171.67,42.4679 177.67,42.4679" stroke-width="0.5" stroke-linecap="square" stroke="#00ffff" fill="none" stroke-linejoin="miter"/>
   <polyline points="174.67,39.4679 174.67,45.4679" stroke-width="0.5" stroke-linecap="square" stroke="#00ffff" fill="none" stroke-linejoin="miter"/>
   <polyline points="183.48,32.4 189.48,32.4" stroke-width="0.5" stroke-linecap="square" stroke="#00ffff" fill="none" stroke-linejoin="miter"/>
   <polyline points="186.48,29.4 186.48,35.4" stroke-width="0.5" stroke-linecap="square" stroke="#00ffff" fill="none" stroke-linejoin="miter"/>
   <polyline points="195.29,42.4679 201.29,42.4679" stroke-width="0.5" stroke-linecap="square" stroke="#00ffff" fill="none" stroke-linejoin="miter"/>
   <polyline points="198.29,39.4679 198.29,45.4679" stroke-width="0.5" stroke-linecap="square" stroke="#00ffff" fill="none" stroke-linejoin="miter"/>
   <polyline points="217.981,77.2275 223.981,77.2275" stroke-width="0.5" stroke-linecap="square" stroke="#00ffff" fill="none" stroke-linejoin="miter"/>
   <polyline points="220.981,74.2275 220.981,80.2275" stroke-width="0.5" stroke-linecap="square" stroke="#00ffff" fill="none" stroke-linejoin="miter"/>
   <polyline points="295.08,208.44 301.08,208.44" stroke-width="0.5" stroke-linecap="square" stroke="#00ffff" fill="none" stroke-linejoin="miter"/>
   <polyline points="298.08,205.44 298.08,211.44" stroke-width="0.5" stroke-linecap="square" stroke="#00ffff" fill="none" stroke-linejoin="miter"/>
   <polyline points="372.179,339.652 378.179,339.652" stroke-width="0.5" stroke-linecap="square" stroke="#00ffff" fill="none" stroke-linejoin="miter"/>
   <polyline points="375.179,336.652 375.179,342.652" stroke-width="0.5" stroke-linecap="square" stroke="#00ffff" fill="none" stroke-linejoin="miter"/>
   <polyline points="394.87,374.412 400.87,374.412" stroke-width="0.5" stroke-linecap="square" stroke="#00ffff" fill="none" stroke-linejoin="miter"/>
   <polyline points="397.87,371.412 397.87,377.412" stroke-width="0.5" stroke-linecap="square" stroke="#00ffff" fill="none" stroke-linejoin="miter"/>
   <polyline points="406.68,384.48 412.68,384.48" stroke-width="0.5" stroke-linecap="square" stroke="#00ffff" fill="none" stroke-linejoin="miter"/>
   <polyline points="409.68,381.48 409.68,387.48" stroke-width="0.5" stroke-linecap="square" stroke="#00ffff" fill="none" stroke-linejoin="miter"/>
   <polyline points="418.49,374.412 424.49,374.412" stroke-width="0.5" stroke-linecap="square" stroke="#00ffff" fill="none" stroke-linejoin="miter"/>
   <polyline points="421.49,371.412 421.49,377.412" stroke-width="0.5" stroke-linecap="square" stroke="#00ffff" fill="none" stroke-linejoin="miter"/>
   <polyline points="441.181,339.652 447.181,339.652" stroke-width="0.5" stroke-linecap="square" stroke="#00ffff" fill="none" stroke-linejoin="miter"/>
   <polyline points="444.181,336.652 444.181,342.652" stroke-width="0.5" stroke-linecap="square" stroke="#00ffff" fill="none" stroke-linejoin="miter"/>
   <polyline points="518.28,208.44 524.28,208.44" stroke-width="0.5" stroke-linecap="square" stroke="#00ffff" fill="none" stroke-linejoin="miter"/>
   <polyline points="521.28,205.44 521.28,211.44" stroke-width="0.5" stroke-linecap="square" stroke="#00ffff" fill="none" stroke-linejoin="miter"/>
   <polyline points="74.88,261.252 81.2722,261.148 87.6414,260.836 93.9649,260.317 100.22,259.593 106.384,258.667 112.436,257.543 118.355,256.226 124.119,254.72 129.709,253.031 135.107,251.166 140.295,249.132 145.257,246.938 149.979,244.592 154.446,242.104 158.648,239.482 162.577,236.738 166.228,233.882 169.597,230.926 172.687,227.881 175.507,224.76 178.072,221.574 180.407,218.336 182.549,215.059 184.552,211.756 186.48,208.44 188.408,205.124 190.411,201.821 192.553,198.544 194.888,195.306 197.453,192.12 200.273,188.999 203.363,185.954 206.732,182.998 210.382,180.142 214.312,177.398 218.514,174.776 222.981,172.288 227.703,169.942 232.665,167.748 237.853,165.714 243.251,163.849 248.841,162.16 254.605,160.654 260.524,159.337 266.576,158.213 272.74,157.287 278.995,156.563 285.319,156.044 291.688,155.732 298.08,155.628 304.472,155.732 310.841,156.044 317.165,156.563 323.42,157.287 329.584,158.213 335.636,159.337 341.555,160.654 347.319,162.16 352.909,163.849 358.307,165.714 363.495,167.748 368.457,169.942 373.179,172.288 377.646,174.776 381.848,177.398 385.777,180.142 389.428,182.998 392.797,185.954 395.887,188.999 398.707,192.12 401.272,195.306 403.607,198.544 405.749,201.821 407.752,205.124 409.68,208.44 411.608,211.756 413.611,215.059 415.753,218.336 418.088,221.574 420.653,224.76 423.473,227.881 426.563,230.926 429.932,233.882 433.583,236.738 437.512,239.482 441.714,242.104 446.181,244.592 450.903,246.938 455.865,249.132 461.053,251.166 466.451,253.031 472.041,254.72 477.805,256.226 483.724,257.543 489.776,258.667 495.94,259.593 502.195,260.317 508.519,260.836 514.888,261.148 521.28,261.252" stroke-width="0.5" stroke-linecap="butt" stroke="#000000" fill="none" stroke-linejoin="round"/>
   <polyline points="74.88,261.252 141.227,248.721 178.427,221.082 186.48,208.44 194.533,195.798 231.733,168.159 298.08,155.628 364.427,168.159 401.627,195.798 409.68,208.44 417.733,221.082 454.933,248.721 521.28,261.252" stroke-width="0.5" stroke-linecap="butt" stroke="#0000ff" fill="none" stroke-linejoin="round"/>
   <polyline points="77.88,261.252 77.3071,263.015 75.8071,264.105 73.9529,264.105 72.4529,263.015 71.88,261.252 72.4529,259.489 73.9529,258.399 75.8071,258.399 77.3071,259.489 77.88,261.252" stroke-width="0.5" stroke-linecap="round" stroke="#0000ff" fill="none" stroke-linejoin="round"/>
   <polyline points="144.227,248.721 143.654,250.484 142.154,251.574 140.3,251.574 138.8,250.484 138.227,248.721 138.8,246.957 140.3,245.867 142.154,245.867 143.654,246.957 144.227,248.721" stroke-width="0.5" stroke-linecap="round" stroke="#0000ff" fill="none" stroke-linejoin="round"/>
   <polyline points="181.427,221.082 180.854,222.845 179.354,223.935 177.5,223.935 176,222.845 175.427,221.082 176,219.318 177.5,218.229 179.354,218.229 180.854,219.318 181.427,221.082" stroke-width="0.5" stroke-linecap="round" stroke="#0000ff" fill="none" stroke-linejoin="round"/>
   <polyline points="189.48,208.44 188.907,210.203 187.407,211.293 185.553,211.293 184.053,210.203 183.48,208.44 184.053,206.677 185.553,205.587 187.407,205.587 188.907,206.677 189.48,208.44" stroke-width="0.5" stroke-linecap="round" stroke="#0000ff" fill="none" stroke-linejoin="round"/>
   <polyline points="197.533,195.798 196.96,197.562 195.46,198.651 193.606,198.651 192.106,197.562 191.533,195.798 192.106,194.035 193.606,192.945 195.46,192.945 196.96,194.035 197.533,195.798" stroke-width="0.5" stroke-linecap="round" stroke="#0000ff" fill="none" stroke-linejoin="round"/>
   <polyline points="234.733,168.159 234.161,169.923 232.661,171.013 230.806,171.013 229.306,169.923 228.733,168.159 229.306,166.396 230.806,165.306 232.661,165.306 234.161,166.396 234.733,168.159" stroke-width="0.5" stroke-linecap="round" stroke="#0000ff" fill="none" stroke-linejoin="round"/>
   <polyline points="301.08,155.628 300.507,157.391 299.007,158.481 297.153,158.481 295.653,157.391 295.08,155.628 295.653,153.865 297.153,152.775 299.007,152.775 300.507,153.865 301.08,155.628" stroke-width="0.5" stroke-linecap="round" stroke="#0000ff" fill="none" stroke-linejoin="round"/>
   <polyline points="367.427,168.159 366.854,169.923 365.354,171.013 363.5,171.013 362,169.923 361.427,168.159 362,166.396 363.5,165.306 365.354,165.306 366.854,166.396 367.427,168.159" stroke-width="0.5" stroke-linecap="round" stroke="#0000ff" fill="none" stroke-linejoin="round"/>
   <polyline points="404.627,195.798 404.054,197.562 402.554,198.651 400.699,198.651 399.199,197.562 398.627,195.798 399.199,194.035 400.699,192.945 402.554,192.945 404.054,194.035 404.627,195.798" stroke-width="0.5" stroke-linecap="round" stroke="#0000ff" fill="none" stroke-linejoin="round"/>
   <polyline points="412.68,208.44 412.107,210.203 410.607,211.293 408.753,211.293 407.253,210.203 406.68,208.44 407.253,206.677 408.753,205.587 410.607,205.587 412.107,206.677 412.68,208.44" stroke-width="0.5" stroke-linecap="round" stroke="#0000ff" fill="none" stroke-linejoin="round"/>
   <polyline points="420.733,221.082 420.16,222.845 418.66,223.935 416.806,223.935 415.306,222.845 414.733,221.082 415.306,219.318 416.806,218.229 418.66,218.229 420.16,219.318 420.733,221.082" stroke-width="0.5" stroke-linecap="round" stroke="#0000ff" fill="none" stroke-linejoin="round"/>
   <polyline points="457.933,248.721 457.361,250.484 455.861,251.574 454.006,251.574 452.506,250.484 451.933,248.721 452.506,246.957 454.006,245.867 455.861,245.867 457.361,246.957 457.933,248.721" stroke-width="0.5" stroke-linecap="round" stroke="#0000ff" fill="none" stroke-linejoin="round"/>
   <polyline points="524.28,261.252 523.707,263.015 522.207,264.105 520.353,264.105 518.853,263.015 518.28,261.252 518.853,259.489 520.353,258.399 522.207,258.399 523.707,259.489 524.28,261.252" stroke-width="0.5" stroke-linecap="round" stroke="#0000ff" fill="none" stroke-linejoin="round"/>
   <polyline points="74.88,261.252 79.344,261.19 83.808,261.005 88.272,260.7 92.736,260.277 97.2,259.738 101.664,259.086 106.128,258.322 110.592,257.451 115.056,256.472 119.52,255.39 123.984,254.206 128.448,252.923 132.912,251.542 137.376,250.067 141.84,248.5 146.304,246.814 150.768,244.905 155.232,242.659 159.696,239.959 164.16,236.69 168.624,232.736 173.088,227.982 177.552,222.31 182.016,215.667 186.48,208.44 190.944,201.213 195.408,194.57 199.872,188.898 204.336,184.144 208.8,180.19 213.264,176.921 217.728,174.221 222.192,171.975 226.656,170.066 231.12,168.38 235.584,166.813 240.048,165.338 244.512,163.957 248.976,162.674 253.44,161.49 257.904,160.408 262.368,159.43 266.832,158.558 271.296,157.794 275.76,157.142 280.224,156.603 284.688,156.18 289.152,155.875 293.616,155.69 298.08,155.628 302.544,155.69 307.008,155.875 311.472,156.18 315.936,156.603 320.4,157.142 324.864,157.794 329.328,158.558 333.792,159.43 338.256,160.408 342.72,161.49 347.184,162.674 351.648,163.957 356.112,165.338 360.576,166.813 365.04,168.38 369.504,170.066 373.968,171.975 378.432,174.221 382.896,176.921 387.36,180.19 391.824,184.144 396.288,188.898 400.752,194.57 405.216,201.213 409.68,208.44 414.144,215.667 418.608,222.31 423.072,227.982 427.536,232.736 432,236.69 436.464,239.959 440.928,242.659 445.392,244.905 449.856,246.814 454.32,248.5 458.784,250.067 463.248,251.542 467.712,252.923 472.176,254.206 476.64,255.39 481.104,256.472 485.568,257.451 490.032,258.322 494.496,259.086 498.96,259.738 503.424,260.277 507.888,260.7 512.352,261.005 516.816,261.19 521.28,261.252" stroke-width="0.5" stroke-linecap="butt" stroke="#ff00ff" fill="none" stroke-linejoin="round"/>
   <polyline points="74.88,261.252 126.48,254.177 165.791,234.846 186.48,208.44 207.169,182.034 246.48,162.703 298.08,155.628 349.68,162.703 388.991,182.034 409.68,208.44 430.369,234.846 469.68,254.177 521.28,261.252" stroke-width="0.5" stroke-linecap="butt" stroke="#00ff00" stroke-dasharray="1,1,1,1,1,1,1,1,1,1" fill="none" stroke-linejoin="round"/>
   <polyline points="71.88,258.252 71.88,264.252 77.88,264.252 77.88,258.252 71.88,258.252" stroke-width="0.5" stroke-linecap="square" stroke="#00ff00" fill="none" stroke-linejoin="miter"/>
   <polyline points="123.48,251.177 123.48,257.177 129.48,257.177 129.48,251.177 123.48,251.177" stroke-width="0.5" stroke-linecap="square" stroke="#00ff00" fill="none" stroke-linejoin="miter"/>
   <polyline points="162.791,231.846 162.791,237.846 168.791,237.846 168.791,231.846 162.791,231.846" stroke-width="0.5" stroke-linecap="square" stroke="#00ff00" fill="none" stroke-linejoin="miter"/>
   <polyline points="183.48,205.44 183.48,211.44 189.48,211.44 189.48,205.44 183.48,205.44" stroke-width="0.5" stroke-linecap="square" stroke="#00ff00" fill="none" stroke-linejoin="miter"/>
   <polyline points="204.169,179.034 204.169,185.034 210.169,185.034 210.169,179.034 204.169,179.034" stroke-width="0.5" stroke-linecap="square" stroke="#00ff00" fill="none" stroke-linejoin="miter"/>
   <polyline points="243.48,159.703 243.48,165.703 249.48,165.703 249.48,159.703 243.48,159.703" stroke-width="0.5" stroke-linecap="square" stroke="#00ff00" fill="none" stroke-linejoin="miter"/>
   <polyline points="295.08,152.628 295.08,158.628 301.08,158.628 301.08,152.628 295.08,152.628" stroke-width="0.5" stroke-linecap="square" stroke="#00ff00" fill="none" stroke-linejoin="miter"/>
   <polyline points="346.68,159.703 346.68,165.703 352.68,165.703 352.68,159.703 346.68,159.703" stroke-width="0.5" stroke-linecap="square" stroke="#00ff00" fill="none" stroke-linejoin="miter"/>
   <polyline points="385.991,179.034 385.991,185.034 391.991,185.034 391.991,179.034 385.991,179.034" stroke-width="0.5" stroke-linecap="square" stroke="#00ff00" fill="none" stroke-linejoin="miter"/>
   <polyline points="406.68,205.44 406.68,211.44 412.68,211.44 412.68,205.44 406.68,205.44" stroke-width="0.5" stroke-linecap="square" stroke="#00ff00" fill="none" stroke-linejoin="miter"/>
   <polyline points="427.369,231.846 427.369,237.846 433.369,237.846 433.369,231.846 427.369,231.846" stroke-width="0.5" stroke-linecap="square" stroke="#00ff00" fill="none" stroke-linejoin="miter"/>
   <polyline points="466.68,251.177 466.68,257.177 472.68,257.177 472.68,251.177 466.68,251.177" stroke-width="0.5" stroke-linecap="square" stroke="#00ff00" fill="none" stroke-linejoin="miter"/>
   <polyline points="518.28,258.252 518.28,264.252 524.28,264.252 524.28,258.252 518.28,258.252" stroke-width="0.5" stroke-linecap="square" stroke="#00ff00" fill="none" stroke-linejoin="miter"/>
   <polyline points="74.88,261.252 151.979,243.648 174.67,226.044 186.48,208.44 198.29,190.836 220.981,173.232 298.08,155.628 375.179,173.232 397.87,190.836 409.68,208.44 421.49,226.044 444.181,243.648 521.28,261.252" stroke-width="0.5" stroke-linecap="butt" stroke="#00ffff" stroke-dasharray="4,4,4,4" fill="none" stroke-linejoin="round"/>
   <polyline points="71.88,261.252 77.88,261.252" stroke-width="0.5" stroke-linecap="square" stroke="#00ffff" fill="none" stroke-linejoin="miter"/>
   <polyline points="74.88,258.252 74.88,264.252" stroke-width="0.5" stroke-linecap="square" stroke="#00ffff" fill="none" stroke-linejoin="miter"/>
   <polyline points="148.979,243.648 154.979,243.648" stroke-width="0.5" stroke-linecap="square" stroke="#00ffff" fill="none" stroke-linejoin="miter"/>
   <polyline points="151.979,240.648 151.979,246.648" stroke-width="0.5" stroke-linecap="square" stroke="#00ffff" fill="none" stroke-linejoin="miter"/>
   <polyline points="171.67,226.044 177.67,226.044" stroke-width="0.5" stroke-linecap="square" stroke="#00ffff" fill="none" stroke-linejoin="miter"/>
   <polyline points="174.67,223.044 174.67,229.044" stroke-width="0.5" stroke-linecap="square" stroke="#00ffff" fill="none" stroke-linejoin="miter"/>
   <polyline points="183.48,208.44 189.48,208.44" stroke-width="0.5" stroke-linecap="square" stroke="#00ffff" fill="none" stroke-linejoin="miter"/>
   <polyline points="186.48,205.44 186.48,211.44" stroke-width="0.5" stroke-linecap="square" stroke="#00ffff" fill="none" stroke-linejoin="miter"/>
   <polyline points="195.29,190.836 201.29,190.836" stroke-width="0.5" stroke-linecap="square" stroke="#00ffff" fill="none" stroke-linejoin="miter"/>
   <polyline points="198.29,187.836 198.29,193.836" stroke-width="0.5" stroke-linecap="square" stroke="#00ffff" fill="none" stroke-linejoin="miter"/>
   <polyline points="217.981,173.232 223.981,173.232" stroke-width="0.5" stroke-linecap="square" stroke="#00ffff" fill="none" stroke-linejoin="miter"/>
   <polyline points="220.981,170.232 220.981,176.232" stroke-width="0.5" stroke-linecap="square" stroke="#00ffff" fill="none" stroke-linejoin="miter"/>
   <polyline points="295.08,155.628 301.08,155.628" stroke-width="0.5" stroke-linecap="square" stroke="#00ffff" fill="none" stroke-linejoin="miter"/>
   <polyline points="298.08,152.628 298.08,158.628" stroke-width="0.5" stroke-linecap="square" stroke="#00ffff" fill="none" stroke-linejoin="miter"/>
   <polyline points="372.179,173.232 378.179,173.232" stroke-width="0.5" stroke-linecap="square" stroke="#00ffff" fill="none" stroke-linejoin="miter"/>
   <polyline points="375.179,170.232 375.179,176.232" stroke-width="0.5" stroke-linecap="square" stroke="#00ffff" fill="none" stroke-linejoin="miter"/>
   <polyline points="394.87,190.836 400.87,190.836" stroke-width="0.5" stroke-linecap="square" stroke="#00ffff" fill="none" stroke-linejoin="miter"/>
   <polyline points="397.87,187.836 397.87,193.836" stroke-width="0.5" stroke-linecap="square" stroke="#00ffff" fill="none" stroke-linejoin="miter"/>
   <polyline points="406.68,208.44 412.68,208.44" stroke-width="0.5" stroke-linecap="square" stroke="#00ffff" fill="none" stroke-linejoin="miter"/>
   <polyline points="409.68,205.44 409.68,211.44" stroke-width="0.5" stroke-linecap="square" stroke="#00ffff" fill="none" stroke-linejoin="miter"/>
   <polyline points="418.49,226.044 424.49,226.044" stroke-width="0.5" stroke-linecap="square" stroke="#00ffff" fill="none" stroke-linejoin="miter"/>
   <polyline points="421.49,223.044 421.49,229.044" stroke-width="0.5" stroke-linecap="square" stroke="#00ffff" fill="none" stroke-linejoin="miter"/>
   <polyline points="441.181,243.648 447.181,243.648" stroke-width="0.5" stroke-linecap="square" stroke="#00ffff" fill="none" stroke-linejoin="miter"/>
   <polyline points="444.181,240.648 444.181,246.648" stroke-width="0.5" stroke-linecap="square" stroke="#00ffff" fill="none" stroke-linejoin="miter"/>
   <polyline points="518.28,261.252 524.28,261.252" stroke-width="0.5" stroke-linecap="square" stroke="#00ffff" fill="none" stroke-linejoin="miter"/>
   <polyline points="521.28,258.252 521.28,264.252" stroke-width="0.5" stroke-linecap="square" stroke="#00ffff" fill="none" stroke-linejoin="miter"/>
  </g>
  <clipPath id="cp00576432">
   <polygon points="0,432 576,432 576,0 0,0"/>
  </clipPath>
  <g clip-path="url(#cp00576432)">
   <polygon points="288,151.2 547.2,151.2 547.2,21.6 288,21.6" shape-rendering="crispEdges" fill="#ffffff"/>
   <polyline points="288,151.2 547.2,151.2" stroke-width="0.5" stroke-linecap="square" stroke="#262626" stroke-dasharray="16,0" fill="none" stroke-linejoin="miter"/>
   <polyline points="288,21.6 547.2,21.6" stroke-width="0.5" stroke-linecap="square" stroke="#262626" stroke-dasharray="16,0" fill="none" stroke-linejoin="miter"/>
   <polyline points="288,151.2 288,21.6" stroke-width="0.5" stroke-linecap="square" stroke="#262626" stroke-dasharray="16,0" fill="none" stroke-linejoin="miter"/>
   <polyline points="547.2,151.2 547.2,21.6" stroke-width="0.5" stroke-linecap="square" stroke="#262626" stroke-dasharray="16,0" fill="none" stroke-linejoin="miter"/>
   <text font-family="FreeSans" transform="translate(314.609,41.06) rotate(-0,-0,-6.5)" font-size="12" font-weight="normal" font-style="normal" xml:space="preserve">
    <tspan x="0 6 9 16 22 26 30 36 42 45 52 58 61 68 72 75 82 88 95 98 104 107 110 116 119 125 129 136 142 145 152 155 158 164 " fill="rgb(0,0,0)" y="-3">high-res polar angle interpolation</tspan>
   </text>
   <text font-family="FreeSans" transform="translate(314.609,66.48) rotate(-0,-0,-6)" font-size="12" font-weight="normal" font-style="normal" xml:space="preserve">
    <tspan x="0 6 12 19 25 31 34 40 46 49 52 55 61 68 71 74 80 83 89 92 99 105 108 114 120 124 130 137 140 146 150 156 " fill="rgb(0,0,0)" y="-2">nodes shifted to high curvatures</tspan>
   </text>
   <text font-family="FreeSans" transform="translate(314.609,92.9) rotate(-0,-0,-6.5)" font-size="12" font-weight="normal" font-style="normal" xml:space="preserve">
    <tspan x="0 6 13 16 19 25 31 34 37 40 43 46 52 55 58 64 73 77 81 87 93 96 102 109 115 118 125 128 134 137 144 150 153 156 163 169 172 179 183 186 193 199 206 209 " fill="rgb(0,0,0)" y="-3">splinefit to low-res equidistant polar angle</tspan>
   </text>
   <text font-family="FreeSans" transform="translate(314.609,118.82) rotate(-0,-0,-6.5)" font-size="12" font-weight="normal" font-style="normal" xml:space="preserve">
    <tspan x="0 3 9 18 22 26 32 38 41 47 54 60 63 70 73 79 82 89 95 98 101 108 114 117 124 128 131 138 144 151 154 160 163 166 172 175 181 185 192 198 201 208 211 214 220 " fill="rgb(0,0,0)" y="-3">low-res equidistant polar angle interpolation</tspan>
   </text>
   <text font-family="FreeSans" transform="translate(314.609,144.74) rotate(-0,-0,-6.5)" font-size="12" font-weight="normal" font-style="normal" xml:space="preserve">
    <tspan x="0 3 9 18 22 26 32 38 41 47 54 60 63 70 73 79 82 89 95 98 101 107 110 116 122 129 136 140 147 150 153 159 " fill="rgb(0,0,0)" y="-3">low-res equidistant y separation</tspan>
   </text>
   <polyline points="291.157,34.56 311.452,34.56" stroke-width="0.5" stroke-linecap="butt" stroke="#000000" fill="none" stroke-linejoin="round"/>
   <polyline points="291.157,60.48 311.452,60.48" stroke-width="0.5" stroke-linecap="butt" stroke="#0000ff" fill="none" stroke-linejoin="round"/>
   <polyline points="304.305,60.48 303.732,62.2433 302.232,63.3332 300.377,63.3332 298.877,62.2433 298.305,60.48 298.877,58.7166 300.377,57.6268 302.232,57.6268 303.732,58.7166 304.305,60.48" stroke-width="0.5" stroke-linecap="round" stroke="#0000ff" fill="none" stroke-linejoin="round"/>
   <polyline points="291.157,86.4 311.452,86.4" stroke-width="0.5" stroke-linecap="butt" stroke="#ff00ff" fill="none" stroke-linejoin="round"/>
   <polyline points="291.157,112.32 311.452,112.32" stroke-width="0.5" stroke-linecap="butt" stroke="#00ff00" stroke-dasharray="1,1,1,1,1,1,1,1,1,1" fill="none" stroke-linejoin="round"/>
   <polyline points="298.305,109.32 298.305,115.32 304.305,115.32 304.305,109.32 298.305,109.32" stroke-width="0.5" stroke-linecap="square" stroke="#00ff00" fill="none" stroke-linejoin="miter"/>
   <polyline points="291.157,138.24 311.452,138.24" stroke-width="0.5" stroke-linecap="butt" stroke="#00ffff" stroke-dasharray="4,4,4,4" fill="none" stroke-linejoin="round"/>
   <polyline points="298.305,138.24 304.305,138.24" stroke-width="0.5" stroke-linecap="square" stroke="#00ffff" fill="none" stroke-linejoin="miter"/>
   <polyline points="301.305,135.24 301.305,141.24" stroke-width="0.5" stroke-linecap="square" stroke="#00ffff" fill="none" stroke-linejoin="miter"/>
  </g>
 </g>
</svg>
